<?xml version="1.0" encoding="UTF-8" standalone="no"?><!DOCTYPE svg PUBLIC "-//W3C//DTD SVG 1.1//EN" "http://www.w3.org/Graphics/SVG/1.1/DTD/svg11.dtd"><svg width="100%" height="100%" viewBox="0 0 575 200" version="1.1" xmlns="http://www.w3.org/2000/svg" xmlns:xlink="http://www.w3.org/1999/xlink" xml:space="preserve" xmlns:serif="http://www.serif.com/" style="fill-rule:evenodd;clip-rule:evenodd;"><g><text x="165.967px" y="105.82px" style="font-family:'ArialMT', 'Arial', sans-serif;font-size:50px;">T<tspan x="190.967px 218.774px " y="105.82px 105.82px ">ea</tspan>m KOR<tspan x="409.57px " y="105.82px ">T</tspan></text><path d="M520,58.333c0,-6.439 -5.228,-11.666 -11.667,-11.666l-441.666,-0c-6.439,-0 -11.667,5.227 -11.667,11.666l-0,66.667c-0,6.439 5.228,11.667 11.667,11.667l441.666,-0c6.439,-0 11.667,-5.228 11.667,-11.667l0,-66.667Z" style="fill:none;stroke:#eee;stroke-width:1.67px;"/></g><path d="M98.843,74.305c0,-1.918 1.542,-3.472 3.447,-3.472l1.723,0c11.422,0 20.68,9.327 20.68,20.834l-0,17.361c-0,1.918 -1.542,3.472 -3.446,3.472l-1.724,0c-11.421,0 -20.68,-9.327 -20.68,-20.833l0,-17.362Z" style="fill:#4a6cf7;fill-opacity:0.56;fill-rule:nonzero;"/><path d="M100.567,112.5c9.517,0 17.233,-7.773 17.233,-17.361c-0,-9.589 -7.716,-17.361 -17.233,-17.361c-9.518,-0 -17.234,7.772 -17.234,17.361c0,9.588 7.716,17.361 17.234,17.361Z" style="fill:#4a6cf7;fill-opacity:0.88;fill-rule:nonzero;"/></svg>