<?xml version="1.0" encoding="UTF-8" standalone="no"?><!DOCTYPE svg PUBLIC "-//W3C//DTD SVG 1.1//EN" "http://www.w3.org/Graphics/SVG/1.1/DTD/svg11.dtd"><svg width="100%" height="100%" viewBox="0 0 575 200" version="1.1" xmlns="http://www.w3.org/2000/svg" xmlns:xlink="http://www.w3.org/1999/xlink" xml:space="preserve" xmlns:serif="http://www.serif.com/" style="fill-rule:evenodd;clip-rule:evenodd;stroke-linejoin:round;stroke-miterlimit:2;"><rect x="167.5" y="39.778" width="240" height="85.836" style="fill:#fff;fill-rule:nonzero;"/><rect x="202.589" y="40.404" width="167.181" height="78.238" style="fill:#fff;fill-rule:nonzero;"/><rect x="169.376" y="37.405" width="240" height="89.065" style="fill:#fff;fill-rule:nonzero;"/><g><path d="M264.687,46.304l-23.154,0l-12.2,12.344l0,-12.785l-16.864,-0l-0,25.362l5.164,-5.221l0,-14.96l6.546,-0l0,12.825l-16.666,16.866l16.61,16.817l-0,12.727l-6.56,0l-0,-14.862l-5.159,-5.221l0,25.262l16.881,0l0,-12.685l12.2,12.346l23.155,-0l-34.236,-34.384l34.283,-34.431Zm-12.504,63.631l-8.55,0l-14.348,-14.518l0,-0.088l-5.162,-5.2l-0,0.067l-9.35,-9.461l9.394,-9.51l-0,0.027l5.158,-5.2l0,-0.048l14.356,-14.521l8.55,0l-22.898,22.998l0,-4.079l-5.168,5.102l-0.028,10.396l5.148,5.081l0,-4.041l22.898,22.995Z" style="fill:#332c54;fill-rule:nonzero;"/></g><g><g id="b"><rect x="307.745" y="110.409" width="0.958" height="4.783" style="fill:#332c54;fill-rule:nonzero;"/></g></g><g><g id="c"><path d="M315.281,112.442c0.017,0.167 0.025,0.39 0.025,0.667l0,2.083l-0.95,-0l0,-1.95c0,-0.217 -0.006,-0.385 -0.017,-0.508c-0.033,-0.438 -0.27,-0.659 -0.708,-0.659c-0.25,0 -0.454,0.117 -0.608,0.35c-0.15,0.234 -0.225,0.596 -0.225,1.084l-0,1.683l-0.959,-0l0,-3.692l0.959,0l-0,0.6l0.283,-0.433c0.244,-0.171 0.542,-0.258 0.892,-0.258c0.387,-0 0.693,0.091 0.916,0.275c0.221,0.179 0.352,0.431 0.392,0.758Z" style="fill:#332c54;fill-rule:nonzero;"/></g></g><g><g id="d"><path d="M321.988,110.092l0,5.1l-0.958,-0l0,-0.567l-0.283,0.409c-0.217,0.17 -0.534,0.258 -0.95,0.258c-0.513,-0 -0.915,-0.171 -1.209,-0.517c-0.295,-0.35 -0.441,-0.802 -0.441,-1.358c-0,-0.638 0.168,-1.133 0.508,-1.483c0.338,-0.35 0.76,-0.525 1.267,-0.525c0.377,-0 0.666,0.07 0.866,0.208l0.242,0.375l0,-1.9l0.958,-0Zm-1.916,4.525c0.287,-0 0.518,-0.096 0.691,-0.292c0.177,-0.2 0.267,-0.51 0.267,-0.933l0,-0.183c0,-0.384 -0.092,-0.667 -0.275,-0.85c-0.179,-0.188 -0.396,-0.284 -0.65,-0.284c-0.283,0 -0.517,0.113 -0.7,0.334c-0.179,0.216 -0.267,0.533 -0.267,0.95c0,0.379 0.084,0.683 0.25,0.916c0.171,0.229 0.4,0.342 0.684,0.342Z" style="fill:#332c54;fill-rule:nonzero;"/></g></g><g><g id="e"><path d="M328.529,111.5l0,3.692l-0.958,-0l-0,-0.625l-0.283,0.475c-0.25,0.167 -0.546,0.25 -0.884,0.25c-0.366,-0 -0.666,-0.09 -0.9,-0.267c-0.229,-0.177 -0.364,-0.402 -0.408,-0.675c-0.023,-0.154 -0.033,-0.377 -0.033,-0.666l-0,-2.184l0.958,0l-0,1.975c-0,0.173 0.008,0.342 0.025,0.509c0.05,0.416 0.287,0.625 0.717,0.625c0.25,-0 0.445,-0.102 0.591,-0.309c0.144,-0.21 0.217,-0.516 0.217,-0.916l-0,-1.884l0.958,0Z" style="fill:#332c54;fill-rule:nonzero;"/></g></g><g><g id="f"><path d="M332.974,111.409c0.427,-0 0.769,0.106 1.025,0.316c0.254,0.213 0.402,0.496 0.442,0.85l-0.958,0c-0.063,-0.36 -0.25,-0.541 -0.567,-0.541c-0.14,-0 -0.248,0.037 -0.325,0.108c-0.073,0.073 -0.108,0.171 -0.108,0.292c-0,0.139 0.06,0.25 0.183,0.333c0.127,0.083 0.344,0.165 0.65,0.242c0.404,0.1 0.704,0.241 0.9,0.425c0.2,0.179 0.3,0.429 0.3,0.75c-0,0.356 -0.142,0.631 -0.425,0.825c-0.283,0.187 -0.648,0.283 -1.092,0.283c-0.462,-0 -0.837,-0.102 -1.125,-0.308c-0.283,-0.205 -0.454,-0.511 -0.508,-0.917l0.958,-0c0.038,0.196 0.119,0.342 0.242,0.442c0.121,0.1 0.271,0.15 0.45,0.15c0.16,-0 0.292,-0.034 0.392,-0.1c0.1,-0.071 0.15,-0.171 0.15,-0.3c-0,-0.144 -0.071,-0.261 -0.209,-0.35c-0.133,-0.094 -0.358,-0.18 -0.675,-0.259c-0.379,-0.087 -0.666,-0.218 -0.866,-0.391c-0.196,-0.177 -0.292,-0.417 -0.292,-0.717c-0,-0.35 0.133,-0.625 0.4,-0.825c0.267,-0.204 0.619,-0.308 1.058,-0.308Z" style="fill:#332c54;fill-rule:nonzero;"/></g></g><g><g id="g"><path d="M338.506,112.159l-0,1.708c-0,0.156 0.002,0.265 0.008,0.325c0.01,0.183 0.06,0.304 0.15,0.358c0.094,0.05 0.275,0.065 0.542,0.042l-0,0.625c-0.2,0.033 -0.413,0.05 -0.634,0.05c-0.35,-0 -0.6,-0.058 -0.75,-0.175c-0.15,-0.117 -0.237,-0.31 -0.258,-0.583c-0.013,-0.111 -0.017,-0.288 -0.017,-0.534l0,-1.816l-0.541,-0l-0,-0.625l0.541,-0l0,-0.909l0.959,0l-0,0.909l0.758,-0l-0,0.625l-0.758,-0Z" style="fill:#332c54;fill-rule:nonzero;"/></g></g><g><g id="h"><path d="M343.995,111.417c0.104,-0 0.193,0.008 0.266,0.025l0,0.767c-0.406,-0.027 -0.706,0.062 -0.9,0.266c-0.195,0.2 -0.291,0.542 -0.291,1.025l-0,1.692l-0.959,-0l0,-3.692l0.959,0l-0,0.675l0.291,-0.508c0.184,-0.167 0.394,-0.25 0.634,-0.25Z" style="fill:#332c54;fill-rule:nonzero;"/></g></g><g><g id="i"><path d="M347.098,110.275c0.1,-0.093 0.227,-0.141 0.384,-0.141c0.154,-0 0.279,0.048 0.375,0.141c0.1,0.096 0.15,0.215 0.15,0.359c-0,0.156 -0.05,0.281 -0.15,0.375c-0.096,0.089 -0.221,0.133 -0.375,0.133c-0.157,-0 -0.284,-0.044 -0.384,-0.133c-0.096,-0.094 -0.141,-0.219 -0.141,-0.375c-0,-0.144 0.045,-0.263 0.141,-0.359Zm0.859,4.917l-0.959,-0l0,-3.692l0.959,0l-0,3.692Z" style="fill:#332c54;fill-rule:nonzero;"/></g></g><g><g id="j"><path d="M354.445,113.275c0,0.134 -0.004,0.242 -0.008,0.325l-2.625,0c0.054,0.679 0.338,1.017 0.85,1.017c0.21,-0 0.383,-0.054 0.517,-0.167c0.137,-0.11 0.225,-0.262 0.258,-0.458l0.958,-0c-0.095,0.423 -0.298,0.746 -0.608,0.967c-0.312,0.223 -0.692,0.333 -1.142,0.333c-0.533,-0 -0.966,-0.163 -1.3,-0.492c-0.333,-0.333 -0.5,-0.812 -0.5,-1.441c0,-0.571 0.171,-1.038 0.517,-1.4c0.344,-0.367 0.796,-0.55 1.358,-0.55c0.538,-0 0.961,0.179 1.267,0.533c0.304,0.356 0.458,0.8 0.458,1.333Zm-1.766,-1.2c-0.479,0 -0.759,0.3 -0.842,0.9l1.625,0c-0.067,-0.6 -0.329,-0.9 -0.783,-0.9Z" style="fill:#332c54;fill-rule:nonzero;"/></g></g><g><g id="f1" serif:id="f"><path d="M358.672,111.409c0.427,-0 0.769,0.106 1.025,0.316c0.254,0.213 0.402,0.496 0.441,0.85l-0.958,0c-0.062,-0.36 -0.25,-0.541 -0.567,-0.541c-0.139,-0 -0.247,0.037 -0.325,0.108c-0.072,0.073 -0.108,0.171 -0.108,0.292c0,0.139 0.061,0.25 0.183,0.333c0.128,0.083 0.344,0.165 0.65,0.242c0.405,0.1 0.705,0.241 0.9,0.425c0.2,0.179 0.3,0.429 0.3,0.75c0,0.356 -0.141,0.631 -0.425,0.825c-0.283,0.187 -0.647,0.283 -1.091,0.283c-0.463,-0 -0.838,-0.102 -1.125,-0.308c-0.284,-0.205 -0.454,-0.511 -0.509,-0.917l0.959,-0c0.037,0.196 0.119,0.342 0.241,0.442c0.121,0.1 0.271,0.15 0.45,0.15c0.161,-0 0.292,-0.034 0.392,-0.1c0.1,-0.071 0.15,-0.171 0.15,-0.3c0,-0.144 -0.071,-0.261 -0.208,-0.35c-0.134,-0.094 -0.359,-0.18 -0.675,-0.259c-0.379,-0.087 -0.667,-0.218 -0.867,-0.391c-0.196,-0.177 -0.292,-0.417 -0.292,-0.717c0,-0.35 0.134,-0.625 0.4,-0.825c0.267,-0.204 0.619,-0.308 1.059,-0.308Z" style="fill:#332c54;fill-rule:nonzero;"/></g></g><g><g id="k"><path d="M271.019,101.895c-3.937,-0 -6.4,2.577 -6.4,6.7c0,4.068 2.463,6.702 6.4,6.702c3.94,-0 6.402,-2.634 6.402,-6.702c0,-4.123 -2.462,-6.7 -6.402,-6.7Zm0,10.302c-1.773,-0 -2.594,-1.567 -2.594,-3.602c0,-2.09 0.821,-3.602 2.594,-3.602c1.775,-0 2.596,1.512 2.596,3.602c-0,2.035 -0.821,3.602 -2.596,3.602Z" style="fill:#332c54;fill-rule:nonzero;"/></g></g><g><g id="l"><path d="M292.371,112.945l-0,-0.915c-0,-1.196 -0.448,-2.092 -1.83,-2.912c0.692,-0.596 1.625,-1.325 1.625,-3.005c0,-2.183 -1.456,-4.05 -5.114,-4.05l-5.936,0l0,13.065l3.621,-0l0,-4.385l2.519,-0c1.046,-0 1.494,0.745 1.494,1.418l-0,0.784c-0,1.008 0.037,1.493 0.373,2.183l3.62,-0c-0.335,-0.69 -0.372,-1.175 -0.372,-2.183Zm-5.617,-5.04l-2.017,0l0,-2.725l2.24,0c0.877,0 1.456,0.392 1.456,1.269c0,1.008 -0.244,1.456 -1.679,1.456Z" style="fill:#332c54;fill-rule:nonzero;"/></g></g><g><g id="m"><path d="M306.405,102.063l-10.732,0l0,3.098l3.565,0l-0,9.967l3.602,-0l-0,-9.967l3.565,0l-0,-3.098Z" style="fill:#332c54;fill-rule:nonzero;"/></g></g></svg>