<?xml version="1.0" encoding="utf-8"?>
<!-- Generator: Adobe Illustrator 23.0.3, SVG Export Plug-In . SVG Version: 6.00 Build 0)  -->
<svg version="1.1"
	 id="logosvg.com" inkscape:version="1.0 (4035a4fb49, 2020-05-01)" sodipodi:docname="Bandai Namco Holdings.svg" xmlns:cc="http://creativecommons.org/ns#" xmlns:dc="http://purl.org/dc/elements/1.1/" xmlns:inkscape="http://www.inkscape.org/namespaces/inkscape" xmlns:rdf="http://www.w3.org/1999/02/22-rdf-syntax-ns#" xmlns:sodipodi="http://sodipodi.sourceforge.net/DTD/sodipodi-0.dtd" xmlns:svg="http://www.w3.org/2000/svg"
	 xmlns="http://www.w3.org/2000/svg" xmlns:xlink="http://www.w3.org/1999/xlink" x="0px" y="0px" viewBox="0 0 400 300"
	 style="enable-background:new 0 0 400 300;" xml:space="preserve">
<style type="text/css">
	.st0{fill:#E60012;}
	.st1{fill:#FABE00;}
	.st2{fill:#ED6D00;}
	.st3{fill:#FFFFFF;}
</style>
<path id="red" class="st0" d="M322.3,83.2c9.3,9,18.4,19.1,25.2,26.7c4.6-17.4,2.3-32.1-7.1-45c-12.5-17.1-38.8-21-62.2-16.7
	c-0.2,0.1-0.6,0.1-1.2,0.3c1.6,0.9,3.2,1.9,4.7,2.9C294.9,59.4,310,71.4,322.3,83.2 M291.2,252.5c-2.2,1.3-4.5,2.3-6.9,3.3
	c4.2,0.3,8.3,0.4,12.4,0.5c36.1,0.2,66.8-9.9,71.5-46.3c0.7-5.6,0-11-1.6-16.2c-1.2-3.8-2.8-7.5-4.7-11.2c-2.3,4.5-4.9,9-8,13.5
	C338.5,218.8,314.6,238.7,291.2,252.5 M82.6,214.5c-25.7-27.1-31.7-59.6-22-89.1c1.2-3.7,2.7-7.3,4.5-10.6
	c-3.6,2.2-7.1,4.6-10.5,7.2c-33.3,25.7-34.6,55.5,4.3,84.1c7.6,5.6,20.1,11.9,30.3,15.6c0.3,0.1,0.5,0.2,0.8,0.3
	C86.9,219,84.2,216.2,82.6,214.5"/>
<path id="yellow" class="st1" d="M368.5,168.5c5.8-18.9-2-37.3-16.5-53.5c-1.3-1.5-2.8-3.2-4.4-4.9c-0.4,1.4-0.8,2.8-1.2,4.3
	c-2,6.6-3.4,12.9-3.3,18.4c0.3,16.5,8,30.6,16.2,45c0.9,1.6,1.8,3.3,2.6,4.9c0.3-0.6,0.6-1.2,0.9-1.8
	C364.5,177.2,367.4,172,368.5,168.5 M187.6,239.5c-21.8-3.7-54.9-6.7-81.8-12.9c-5.7-1.3-11-2.8-15.8-4.6c5,4.9,10.8,10.5,14.2,13.1
	c17.8,13.5,39.2,25.2,67.5,29.1c34,4.7,75.8,4.6,106.5-6.1c2.1-0.7,4.1-1.5,6.1-2.3c-3.2-0.2-6.4-0.4-9.7-0.8
	C242.2,251.8,208.4,243,187.6,239.5 M182.9,73.9c41.3-12.4,82.2-22.5,84.1-23c1.3-0.3,7.4-1.7,10.2-2.3c-12-7-26.1-12.1-43.4-14.5
	c-41.8-5.9-72.9,9.4-106.2,27.6C100.2,76.7,77,91.6,65,114.8c9.1-5.6,18.9-10.3,28.8-14.2C108.6,94.7,162.7,80,182.9,73.9"/>
<path id="orange" class="st2" d="M359.2,177.7c-8.2-14.4-15.9-28.6-16.2-45c-0.1-5.5,1.3-11.7,3.3-18.4c0.5-1.4,0.9-2.9,1.2-4.3
	c-6.8-7.7-15.9-17.7-25.2-26.7c-12.3-11.9-27.4-23.8-40.5-31.8c-1.5-1-3.1-1.9-4.7-2.9c-2.8,0.6-8.9,2-10.2,2.3
	c-1.9,0.4-42.8,10.5-84.1,23c-20.2,6.1-74.2,20.9-89,26.7c-9.9,4-19.7,8.6-28.8,14.2c-1.7,3.4-3.2,6.9-4.5,10.6
	c-9.7,29.5-3.7,61.9,22,89.1c1.6,1.7,4.3,4.5,7.4,7.5c4.8,1.7,10.1,3.3,15.8,4.6c26.9,6.2,60,9.2,81.8,12.9
	c20.8,3.5,54.6,12.3,87.1,15.5c3.2,0.3,6.5,0.6,9.7,0.8c2.4-1,4.7-2.1,6.9-3.3c23.5-13.8,47.3-33.7,62.8-56.4c3-4.5,5.7-9,8-13.5
	C361,180.9,360.2,179.3,359.2,177.7"/>
<path id="text" class="st3" d="M129.2,143.4c0-5.6-3-8.8-8.8-10.1v-0.1c4.9-1.7,7.7-4.9,7.7-10.7c0-7.9-6.1-11.6-14.2-11.6H93.7
	v45.7h18.5C120,156.6,129.2,154.3,129.2,143.4z M108.8,119.6c3.9,0,7.7,0.4,7.7,4.6c0,3.8-4,4.8-7.8,4.8h-3.3l0-9.4H108.8z
	 M105.4,148v-10.7h3.6c4,0,8.6,0.4,8.6,5.4c0,4.7-4.4,5.3-8.7,5.3H105.4z M140.4,156.6l3.5-9.8h16.4l3.3,9.8h12.8l-16.9-45.7h-14.3
	l-16.6,45.7H140.4z M152.1,120.4h0.1l5.2,17.9h-11L152.1,120.4z M189.3,156.6h-10.7l0-45.7h14.9l14.8,31h0.1l-0.2-31h10.6v45.7
	h-14.5L189,125.4h-0.1L189.3,156.6z M267.3,133.6c0-17.7-10.6-22.7-25.9-22.7h-15.9v45.7h15.9C256.4,156.6,267.3,150.7,267.3,133.6z
	 M241.7,147.6h-4.5V120h4.5c8.5,0,13.6,4.7,13.6,13.8C255.3,142.9,250.4,147.6,241.7,147.6z M276.6,156.6l3.5-9.8h16.4l3.3,9.8h12.8
	l-16.9-45.7h-14.3l-16.6,45.7H276.6z M288.4,120.4h0.1l5.2,17.9h-11L288.4,120.4z M325.9,156.6h-11.7v-45.7h11.7V156.6z
	 M123.6,166.6h10.8v45.7h-14.6L104.3,181h-0.1l0.4,31.2H93.7l0-45.7h15l14.9,31.1h0.1L123.6,166.6z M153.6,166.6l-16.8,45.7h12
	l3.5-9.7h16.6l3.3,9.7h12.9L168,166.6H153.6z M155,193.9l5.7-17.9h0.1l5.3,17.9H155z M221.9,166.6h17.9v45.7h-11.5l0.2-35.1h-0.1
	l-9.6,35.1h-10.8l-9.1-35.1h-0.1l0.2,35.1h-11.5l0-45.7H206l7.7,30.4h0.1L221.9,166.6z M281.7,201.7l0.6,9.6
	c-3.4,0.8-7.1,1.8-13.1,1.8c-11.8,0-25.4-6.2-25.4-23.5c0-15.9,10.8-23.9,25.3-23.9c4.5,0,8.9,1.1,13.1,2.4l-1,9.9
	c-3.8-2.1-7.5-3.2-11.5-3.2c-8.4,0-13.8,6.3-13.8,14.8c0,9,6.1,14.4,14.8,14.4C274.5,204.1,278.4,203,281.7,201.7z M306.2,165.8
	c-14.6,0-22.2,9-22.2,23.7c0,14.5,7.7,23.6,22.2,23.6c14.4,0,22.2-9.1,22.2-23.6C328.4,174.8,320.8,165.8,306.2,165.8z M306.2,204.1
	c-7.2,0-10-7.1-10-14.6c0-7.9,2.8-14.6,10-14.6c7.1,0,10,6.7,10,14.6C316.2,197,313.4,204.1,306.2,204.1z"/>
</svg>
