<svg xmlns="http://www.w3.org/2000/svg" xmlns:xlink="http://www.w3.org/1999/xlink" width="138" viewBox="0 0 138 48" height="48" version="1.0"><defs><g id="b"><path d="M 2.953125 0 L 1.15625 0 L 1.15625 -8.96875 L 2.953125 -8.96875 Z M 2.953125 0"/></g><g id="c"><path d="M 7.265625 -5.15625 C 7.296875 -4.84375 7.3125 -4.425781 7.3125 -3.90625 L 7.3125 0 L 5.53125 0 L 5.53125 -3.65625 C 5.53125 -4.0625 5.519531 -4.378906 5.5 -4.609375 C 5.4375 -5.429688 4.992188 -5.84375 4.171875 -5.84375 C 3.703125 -5.84375 3.320312 -5.625 3.03125 -5.1875 C 2.75 -4.75 2.609375 -4.070312 2.609375 -3.15625 L 2.609375 0 L 0.8125 0 L 0.8125 -6.921875 L 2.609375 -6.921875 L 2.609375 -5.796875 L 3.140625 -6.609375 C 3.597656 -6.929688 4.15625 -7.09375 4.8125 -7.09375 C 5.539062 -7.09375 6.113281 -6.921875 6.53125 -6.578125 C 6.945312 -6.242188 7.191406 -5.769531 7.265625 -5.15625 Z M 7.265625 -5.15625"/></g><g id="d"><path d="M 7.546875 -9.5625 L 7.546875 0 L 5.75 0 L 5.75 -1.0625 L 5.21875 -0.296875 C 4.8125 0.0234375 4.21875 0.1875 3.4375 0.1875 C 2.476562 0.1875 1.722656 -0.132812 1.171875 -0.78125 C 0.617188 -1.4375 0.34375 -2.285156 0.34375 -3.328125 C 0.34375 -4.523438 0.660156 -5.453125 1.296875 -6.109375 C 1.929688 -6.765625 2.722656 -7.09375 3.671875 -7.09375 C 4.378906 -7.09375 4.921875 -6.960938 5.296875 -6.703125 L 5.75 -6 L 5.75 -9.5625 Z M 3.953125 -1.078125 C 4.492188 -1.078125 4.925781 -1.257812 5.25 -1.625 C 5.582031 -2 5.75 -2.582031 5.75 -3.375 L 5.75 -3.71875 C 5.75 -4.4375 5.578125 -4.96875 5.234375 -5.3125 C 4.898438 -5.664062 4.492188 -5.84375 4.015625 -5.84375 C 3.484375 -5.84375 3.046875 -5.632812 2.703125 -5.21875 C 2.367188 -4.8125 2.203125 -4.21875 2.203125 -3.4375 C 2.203125 -2.726562 2.359375 -2.15625 2.671875 -1.71875 C 2.992188 -1.289062 3.421875 -1.078125 3.953125 -1.078125 Z M 3.953125 -1.078125"/></g><g id="e"><path d="M 7.203125 -6.921875 L 7.203125 0 L 5.40625 0 L 5.40625 -1.171875 L 4.875 -0.28125 C 4.40625 0.03125 3.851562 0.1875 3.21875 0.1875 C 2.53125 0.1875 1.96875 0.0195312 1.53125 -0.3125 C 1.101562 -0.644531 0.847656 -1.066406 0.765625 -1.578125 C 0.722656 -1.867188 0.703125 -2.285156 0.703125 -2.828125 L 0.703125 -6.921875 L 2.5 -6.921875 L 2.5 -3.21875 C 2.5 -2.894531 2.515625 -2.578125 2.546875 -2.265625 C 2.640625 -1.484375 3.085938 -1.09375 3.890625 -1.09375 C 4.359375 -1.09375 4.726562 -1.285156 5 -1.671875 C 5.269531 -2.066406 5.40625 -2.640625 5.40625 -3.390625 L 5.40625 -6.921875 Z M 7.203125 -6.921875"/></g><g id="f"><path d="M 3.28125 -7.09375 C 4.082031 -7.09375 4.722656 -6.894531 5.203125 -6.5 C 5.679688 -6.101562 5.957031 -5.570312 6.03125 -4.90625 L 4.234375 -4.90625 C 4.117188 -5.582031 3.765625 -5.921875 3.171875 -5.921875 C 2.910156 -5.921875 2.707031 -5.851562 2.5625 -5.71875 C 2.425781 -5.582031 2.359375 -5.398438 2.359375 -5.171875 C 2.359375 -4.910156 2.472656 -4.703125 2.703125 -4.546875 C 2.941406 -4.390625 3.347656 -4.238281 3.921875 -4.09375 C 4.679688 -3.90625 5.242188 -3.640625 5.609375 -3.296875 C 5.984375 -2.960938 6.171875 -2.492188 6.171875 -1.890625 C 6.171875 -1.222656 5.90625 -0.707031 5.375 -0.34375 C 4.84375 0.0078125 4.160156 0.1875 3.328125 0.1875 C 2.460938 0.1875 1.757812 -0.00390625 1.21875 -0.390625 C 0.6875 -0.773438 0.367188 -1.347656 0.265625 -2.109375 L 2.0625 -2.109375 C 2.132812 -1.742188 2.285156 -1.46875 2.515625 -1.28125 C 2.742188 -1.09375 3.023438 -1 3.359375 -1 C 3.660156 -1 3.90625 -1.0625 4.09375 -1.1875 C 4.28125 -1.320312 4.375 -1.507812 4.375 -1.75 C 4.375 -2.019531 4.242188 -2.238281 3.984375 -2.40625 C 3.734375 -2.582031 3.3125 -2.742188 2.71875 -2.890625 C 2.007812 -3.054688 1.46875 -3.300781 1.09375 -3.625 C 0.726562 -3.957031 0.546875 -4.40625 0.546875 -4.96875 C 0.546875 -5.625 0.796875 -6.140625 1.296875 -6.515625 C 1.796875 -6.898438 2.457031 -7.09375 3.28125 -7.09375 Z M 3.28125 -7.09375"/></g><g id="g"><path d="M 2.96875 -5.6875 L 2.96875 -2.484375 C 2.96875 -2.191406 2.972656 -1.988281 2.984375 -1.875 C 3.003906 -1.53125 3.097656 -1.304688 3.265625 -1.203125 C 3.441406 -1.109375 3.78125 -1.082031 4.28125 -1.125 L 4.28125 0.046875 C 3.90625 0.109375 3.507812 0.140625 3.09375 0.140625 C 2.4375 0.140625 1.96875 0.03125 1.6875 -0.1875 C 1.40625 -0.40625 1.242188 -0.769531 1.203125 -1.28125 C 1.179688 -1.488281 1.171875 -1.820312 1.171875 -2.28125 L 1.171875 -5.6875 L 0.15625 -5.6875 L 0.15625 -6.859375 L 1.171875 -6.859375 L 1.171875 -8.5625 L 2.96875 -8.5625 L 2.96875 -6.859375 L 4.390625 -6.859375 L 4.390625 -5.6875 Z M 2.96875 -5.6875"/></g><g id="h"><path d="M 4.34375 -7.078125 C 4.539062 -7.078125 4.707031 -7.0625 4.84375 -7.03125 L 4.84375 -5.59375 C 4.082031 -5.644531 3.519531 -5.476562 3.15625 -5.09375 C 2.789062 -4.71875 2.609375 -4.078125 2.609375 -3.171875 L 2.609375 0 L 0.8125 0 L 0.8125 -6.921875 L 2.609375 -6.921875 L 2.609375 -5.65625 L 3.15625 -6.609375 C 3.5 -6.921875 3.894531 -7.078125 4.34375 -7.078125 Z M 4.34375 -7.078125"/></g><g id="i"><path d="M 1 -9.21875 C 1.1875 -9.394531 1.425781 -9.484375 1.71875 -9.484375 C 2.007812 -9.484375 2.242188 -9.394531 2.421875 -9.21875 C 2.609375 -9.039062 2.703125 -8.816406 2.703125 -8.546875 C 2.703125 -8.253906 2.609375 -8.019531 2.421875 -7.84375 C 2.242188 -7.675781 2.007812 -7.59375 1.71875 -7.59375 C 1.425781 -7.59375 1.1875 -7.675781 1 -7.84375 C 0.820312 -8.019531 0.734375 -8.253906 0.734375 -8.546875 C 0.734375 -8.816406 0.820312 -9.039062 1 -9.21875 Z M 2.609375 0 L 0.8125 0 L 0.8125 -6.921875 L 2.609375 -6.921875 Z M 2.609375 0"/></g><g id="j"><path d="M 7.09375 -3.59375 C 7.09375 -3.34375 7.085938 -3.140625 7.078125 -2.984375 L 2.15625 -2.984375 C 2.257812 -1.710938 2.789062 -1.078125 3.75 -1.078125 C 4.144531 -1.078125 4.46875 -1.179688 4.71875 -1.390625 C 4.976562 -1.597656 5.140625 -1.882812 5.203125 -2.25 L 7 -2.25 C 6.820312 -1.457031 6.441406 -0.851562 5.859375 -0.4375 C 5.273438 -0.0195312 4.5625 0.1875 3.71875 0.1875 C 2.71875 0.1875 1.90625 -0.117188 1.28125 -0.734375 C 0.65625 -1.359375 0.34375 -2.257812 0.34375 -3.4375 C 0.34375 -4.507812 0.664062 -5.382812 1.3125 -6.0625 C 1.957031 -6.75 2.804688 -7.09375 3.859375 -7.09375 C 4.867188 -7.09375 5.660156 -6.757812 6.234375 -6.09375 C 6.804688 -5.425781 7.09375 -4.59375 7.09375 -3.59375 Z M 3.78125 -5.84375 C 2.882812 -5.84375 2.359375 -5.28125 2.203125 -4.15625 L 5.25 -4.15625 C 5.125 -5.28125 4.632812 -5.84375 3.78125 -5.84375 Z M 3.78125 -5.84375"/></g><g id="k"><path d="M 13.191406 -24.8125 C 5.808594 -24.8125 1.191406 -19.980469 1.191406 -12.25 C 1.191406 -4.621094 5.808594 0.316406 13.191406 0.316406 C 20.578125 0.316406 25.195312 -4.621094 25.195312 -12.25 C 25.195312 -19.980469 20.578125 -24.8125 13.191406 -24.8125 Z M 13.191406 -5.496094 C 9.867188 -5.496094 8.328125 -8.433594 8.328125 -12.25 C 8.328125 -16.167969 9.867188 -19.003906 13.191406 -19.003906 C 16.519531 -19.003906 18.058594 -16.167969 18.058594 -12.25 C 18.058594 -8.433594 16.519531 -5.496094 13.191406 -5.496094 Z M 13.191406 -5.496094"/></g><g id="l"><path d="M 22.816406 -4.09375 L 22.816406 -5.808594 C 22.816406 -8.050781 21.976562 -9.730469 19.386719 -11.269531 C 20.683594 -12.386719 22.433594 -13.753906 22.433594 -16.902344 C 22.433594 -20.996094 19.703125 -24.496094 12.84375 -24.496094 L 1.714844 -24.496094 L 1.714844 0 L 8.503906 0 L 8.503906 -8.222656 L 13.226562 -8.222656 C 15.1875 -8.222656 16.027344 -6.824219 16.027344 -5.5625 L 16.027344 -4.09375 C 16.027344 -2.203125 16.097656 -1.292969 16.726562 0 L 23.515625 0 C 22.886719 -1.292969 22.816406 -2.203125 22.816406 -4.09375 Z M 12.285156 -13.542969 L 8.503906 -13.542969 L 8.503906 -18.652344 L 12.703125 -18.652344 C 14.347656 -18.652344 15.433594 -17.917969 15.433594 -16.273438 C 15.433594 -14.382812 14.976562 -13.542969 12.285156 -13.542969 Z M 12.285156 -13.542969"/></g><g id="m"><path d="M 20.785156 -24.496094 L 0.664062 -24.496094 L 0.664062 -18.6875 L 7.347656 -18.6875 L 7.347656 0 L 14.101562 0 L 14.101562 -18.6875 L 20.785156 -18.6875 Z M 20.785156 -24.496094"/></g><clipPath id="a"><path d="M 37.5 85.992188 L 144.75 85.992188 L 144.75 216.492188 L 37.5 216.492188 Z M 37.5 85.992188"/></clipPath></defs><path fill="#FFF" d="M-37.5 -37.5H412.5V412.5H-37.5z"/><path fill="#FFF" d="M-37.5 -37.5H412.5V412.5H-37.5z"/><path fill="#FFF" d="M-37.5 -37.5H412.5V412.5H-37.5z"/><g clip-path="url(#a)"><path fill="#332C54" d="M 144.726562 86.820312 L 101.3125 86.820312 L 78.4375 109.964844 L 78.4375 85.992188 L 46.816406 85.992188 L 46.816406 133.546875 L 56.5 123.757812 L 56.5 95.707031 L 68.773438 95.707031 L 68.773438 119.753906 L 37.523438 151.378906 L 68.667969 182.910156 L 68.667969 206.773438 L 56.367188 206.773438 L 56.367188 178.90625 L 46.695312 169.117188 L 46.695312 216.484375 L 78.347656 216.484375 L 78.347656 192.699219 L 101.222656 215.847656 L 144.636719 215.847656 L 80.445312 151.378906 Z M 121.28125 206.128906 L 105.25 206.128906 L 78.347656 178.90625 L 78.347656 178.742188 L 68.667969 168.992188 L 68.667969 169.117188 L 51.136719 151.378906 L 68.75 133.546875 L 68.75 133.597656 L 78.421875 123.847656 L 78.421875 123.757812 L 105.339844 96.53125 L 121.371094 96.53125 L 78.4375 139.652344 L 78.4375 132.003906 L 68.746094 141.570312 L 68.695312 161.0625 L 78.347656 170.589844 L 78.347656 163.011719 Z M 121.28125 206.128906"/></g><g fill="#332C54"><use x="228.292" y="213.875" xmlns:xlink="http://www.w3.org/1999/xlink" xlink:href="#b" xlink:type="simple" xlink:actuate="onLoad" xlink:show="embed"/></g><g fill="#332C54"><use x="236.312" y="213.875" xmlns:xlink="http://www.w3.org/1999/xlink" xlink:href="#c" xlink:type="simple" xlink:actuate="onLoad" xlink:show="embed"/></g><g fill="#332C54"><use x="248.607" y="213.875" xmlns:xlink="http://www.w3.org/1999/xlink" xlink:href="#d" xlink:type="simple" xlink:actuate="onLoad" xlink:show="embed"/></g><g fill="#332C54"><use x="261.215" y="213.875" xmlns:xlink="http://www.w3.org/1999/xlink" xlink:href="#e" xlink:type="simple" xlink:actuate="onLoad" xlink:show="embed"/></g><g fill="#332C54"><use x="273.471" y="213.875" xmlns:xlink="http://www.w3.org/1999/xlink" xlink:href="#f" xlink:type="simple" xlink:actuate="onLoad" xlink:show="embed"/></g><g fill="#332C54"><use x="284.155" y="213.875" xmlns:xlink="http://www.w3.org/1999/xlink" xlink:href="#g" xlink:type="simple" xlink:actuate="onLoad" xlink:show="embed"/></g><g fill="#332C54"><use x="293.072" y="213.875" xmlns:xlink="http://www.w3.org/1999/xlink" xlink:href="#h" xlink:type="simple" xlink:actuate="onLoad" xlink:show="embed"/></g><g fill="#332C54"><use x="302.235" y="213.875" xmlns:xlink="http://www.w3.org/1999/xlink" xlink:href="#i" xlink:type="simple" xlink:actuate="onLoad" xlink:show="embed"/></g><g fill="#332C54"><use x="309.917" y="213.875" xmlns:xlink="http://www.w3.org/1999/xlink" xlink:href="#j" xlink:type="simple" xlink:actuate="onLoad" xlink:show="embed"/></g><g fill="#332C54"><use x="321.654" y="213.875" xmlns:xlink="http://www.w3.org/1999/xlink" xlink:href="#f" xlink:type="simple" xlink:actuate="onLoad" xlink:show="embed"/></g><g fill="#332C54"><use x="147.395" y="213.755" xmlns:xlink="http://www.w3.org/1999/xlink" xlink:href="#k" xlink:type="simple" xlink:actuate="onLoad" xlink:show="embed"/></g><g fill="#332C54"><use x="177.804" y="213.755" xmlns:xlink="http://www.w3.org/1999/xlink" xlink:href="#l" xlink:type="simple" xlink:actuate="onLoad" xlink:show="embed"/></g><g fill="#332C54"><use x="206.149" y="213.755" xmlns:xlink="http://www.w3.org/1999/xlink" xlink:href="#m" xlink:type="simple" xlink:actuate="onLoad" xlink:show="embed"/></g>

<defs>
<filter id="filter0_d" x="0" y="0" width="138" height="48" filterUnits="userSpaceOnUse" color-interpolation-filters="sRGB">
<feFlood flood-opacity="0" result="BackgroundImageFix"/>
<feColorMatrix in="SourceAlpha" type="matrix" values="0 0 0 0 0 0 0 0 0 0 0 0 0 0 0 0 0 0 127 0" result="hardAlpha"/>
<feOffset dy="2"/>
<feGaussianBlur stdDeviation="6.5"/>
<feComposite in2="hardAlpha" operator="out"/>
<feColorMatrix type="matrix" values="0 0 0 0 0 0 0 0 0 0 0 0 0 0 0 0 0 0 0.13 0"/>
<feBlend mode="normal" in2="BackgroundImageFix" result="effect1_dropShadow"/>
<feBlend mode="normal" in="SourceGraphic" in2="effect1_dropShadow" result="shape"/>
</filter>
</defs>

</svg>