<?xml version="1.0" encoding="utf-8"?>
<!-- Generator: Adobe Illustrator 23.0.3, SVG Export Plug-In . SVG Version: 6.00 Build 0)  -->
<svg version="1.1"
	 id="logosvg.com" xmlns:cc="http://creativecommons.org/ns#" xmlns:dc="http://purl.org/dc/elements/1.1/" xmlns:rdf="http://www.w3.org/1999/02/22-rdf-syntax-ns#" xmlns:svg="http://www.w3.org/2000/svg"
	 xmlns="http://www.w3.org/2000/svg" xmlns:xlink="http://www.w3.org/1999/xlink" x="0px" y="0px" viewBox="0 0 400 300"
	 style="enable-background:new 0 0 400 300;" xml:space="preserve">
<style type="text/css">
	.st0{fill:#080804;}
</style>
<path id="logo" transform="scale(0.1,0.1)" class="st0" d="M356.2,1319.6c-10.1,0-23.4,6.6-29.5,14.7L61.4,1685.6
	c-6.1,8.1-2.8,14.7,7.3,14.7h308.1c10.1,0,23.4-6.6,29.5-14.7l265.5-351.2c6.1-8.1,2.8-14.7-7.3-14.7L356.2,1319.6 M908.3,1334.3
	c6.1-8.1,2.8-14.7-7.3-14.7H756.2c-10.1,0-23.4,6.6-29.5,14.7l-265.4,351.4c-6.1,8.1-2.8,14.7,7.3,14.7h144.9
	c10.1,0,23.4-6.6,29.5-14.7L908.3,1334.3 M995.3,1319.6c-10.1,0-23.4,6.6-29.5,14.7l-265.4,351.4c-6.1,8.1-2.8,14.7,7.3,14.7h110.4
	c10.1,0,23.4-6.6,29.5-14.7l265.4-351.4c6.1-8.1,2.8-14.7-7.3-14.7H995.3 M921.3,1685.7c-6.1,8.1-2.8,14.7,7.3,14.7l76-0.1
	c10.1,0,23.4-6.6,29.5-14.7l265.2-351.2c6.1-8.1,2.8-14.7-7.3-14.7l-76-0.1c-10.1,0-23.4,6.6-29.5,14.7L921.3,1685.7 M1119.1,1685.7
	c-6.1,8.1-2.8,14.7,7.3,14.7h55.2c10.1,0,23.4-6.6,29.5-14.7l265.2-350c6.1-8.1,2.8-14.7-7.3-14.7h-55c-10.1,0-23.4,6.6-29.5,14.7
	L1119.1,1685.7 M1608.3,1513.3c-10.1,0-13.4-6.6-7.3-14.7l49.1-65.2c6.1-8.1,19.4-14.7,29.5-14.7h341.7c10.1,0,18.4,8.3,18.4,18.4
	l0.1,57.7c0,10.1-8.3,18.4-18.4,18.4L1608.3,1513.3L1608.3,1513.3z M1588.6,1321c-10.1,0-23.4,6.6-29.5,14.7l-265.2,350.1
	c-6.1,8.1-2.8,14.7,7.3,14.7l128.8-0.1c10.1,0,23.4-6.6,29.5-14.7l42.3-55.9c6.1-8.1,19.4-14.7,29.5-14.7l489.9-0.1
	c10.1,0,18.4,8.3,18.4,18.4v48.5c0,10.1,8.3,18.4,18.4,18.4l101.1,0.1c10.1,0,18.4-8.3,18.4-18.4v-342.5c0-10.1-8.3-18.4-18.4-18.4
	L1588.6,1321 M2245.8,1681.9c0,10.1,8.3,18.4,18.4,18.4h101.1c10.1,0,18.4-8.3,18.4-18.4l0.1-193.4c0-10.1,7.1-14.2,15.9-9
	l191.4,112.9c8.7,5.1,24.1,9.3,34.2,9.3l73.5-0.1c10.1,0,25.5-4.2,34.3-9.4l191.4-112.7c8.7-5.1,15.9-1.1,15.9,9.1l-0.1,193.3
	c0,10.1,8.3,18.4,18.4,18.4H3060c10.1,0,18.4-8.3,18.4-18.4v-342.4c0-10.1-8.3-18.4-18.4-18.4l-101.1-0.1c-10.1,0-25.4,4.5-33.9,10
	l-247.3,159.8c-8.5,5.5-22.4,5.5-30.9,0L2399.3,1331c-8.5-5.5-23.7-10-33.9-10l-101.3,0.1c-10.1,0-18.4,8.3-18.4,18.4V1681.9
	 M3147.3,1681.9c0,10.1,8.3,18.4,18.4,18.4h747.5c10.1,0,18.4-8.3,18.4-18.4v-189.5c0-10.1-8.3-18.4-18.4-18.4l-368-0.1
	c-10.1,0-18.4,8.3-18.4,18.4l0.1,36.7c0,10.1,8.3,18.4,18.4,18.4l230,0.2c10.1,0,18.4,8.3,18.4,18.4v19.5c0,10.1-8.3,18.4-18.4,18.4
	l-471.5-0.1c-10.1,0-18.4-8.3-18.4-18.4V1436c0-10.1,8.3-18.4,18.4-18.4l609.4-0.1c10.1,0,18.4-8.3,18.4-18.4v-59.7
	c0-10.1-8.3-18.4-18.4-18.4l-747.5,0.1c-10.1,0-18.4,8.3-18.4,18.4V1681.9"/>
</svg>
