<?xml version="1.0" encoding="utf-8"?>
<!-- Generator: Adobe Illustrator 23.0.3, SVG Export Plug-In . SVG Version: 6.00 Build 0)  -->
<svg version="1.1" id="logosvg.com" xmlns="http://www.w3.org/2000/svg" xmlns:xlink="http://www.w3.org/1999/xlink" x="0px"
	 y="0px" viewBox="0 0 400 300" style="enable-background:new 0 0 400 300;" xml:space="preserve">
<style type="text/css">
	.st0{fill:#FF5500;}
</style>
<path id="orange" class="st0" d="M5.9,154.5l-0.6,5.6l0.6,5.6c0,0.3,0.3,0.3,0.3,0.3c0.3,0,0.3-0.3,0.3-0.3l0.9-5.6l-0.9-5.6
	c0-0.3-0.3-0.3-0.3-0.3S5.9,154.2,5.9,154.5 M9.6,151.1l-0.9,9.1l0.9,9.1c0,0.3,0.3,0.3,0.3,0.3c0.3,0,0.3-0.3,0.3-0.3l1.3-9.1
	l-1.3-9.1c0-0.3-0.3-0.3-0.3-0.3l0,0L9.6,151.1 M21.5,149.8l-0.6,10.3l0.6,10.9c0,0.3,0.3,0.6,0.6,0.6s0.6-0.3,0.6-0.6l1.3-10.9
	l-0.9-10.3c0-0.3-0.3-0.6-0.6-0.6C21.8,149.2,21.5,149.5,21.5,149.8 M13.7,149.2l-0.9,10.9l0.9,10.3c0,0.3,0.3,0.6,0.6,0.6
	c0,0,0.3-0.3,0.3-0.6l0.9-10.3l-0.9-10.9c0-0.3-0.3-0.6-0.6-0.6C14,148.9,13.7,148.9,13.7,149.2 M17.5,148.9l-0.9,11.3l0.9,10.6
	c0,0.3,0.3,0.6,0.6,0.6s0.6-0.3,0.6-0.6l0.9-10.6l-0.9-11.3c0-0.3-0.3-0.6-0.6-0.6S17.8,148.6,17.5,148.9 M25.6,143.3l-0.9,16.9
	l0.9,10.9c0,0.3,0.3,0.6,0.6,0.6c0.6,0,0.9-0.3,0.9-0.6l0.9-10.9l-0.9-16.9c0-0.3-0.3-0.6-0.6-0.6C25.9,142.6,25.6,143,25.6,143.3
	 M29.7,139.5L29,160.2l0.6,10.9c0,0.6,0.3,0.9,0.9,0.9c0.3,0,0.9-0.3,0.9-0.9l0.9-10.9l-0.9-20.6c0-0.6-0.3-0.9-0.9-0.9
	C30,138.6,29.7,138.9,29.7,139.5 M222.7,138.3v11.9v6.3c-0.3-0.6-1.3-2.2-1.9-3.1l-10-15h-5.3v28.5h5.6v-12.5V148
	c0.3,0.6,1.3,2.2,1.9,3.1l10.3,15.6h5v-28.5H222.7z M241.5,143.9h3.1c5.9,0,8.4,2.8,8.4,8.8c0,5.3-2.8,8.8-8.8,8.8h-2.8
	C241.5,161.4,241.5,143.9,241.5,143.9z M235.8,166.7h8.4c7.2,0,14.7-4.1,14.7-14.1c0-10.3-5.9-14.1-14.1-14.1h-9.1v-0.3
	C235.8,138.3,235.8,166.7,235.8,166.7z M291.8,138.3v28.5H309v-5.6h-11.3v-22.8H291.8z M377.5,143.9h3.1c5.9,0,8.4,2.8,8.4,8.8
	c0,5.3-2.8,8.8-8.8,8.8h-2.8V143.9z M371.9,166.7h8.4c6.3,0,12.8-3.1,14.4-10.6v-7.2c-1.3-7.5-6.6-10.3-13.8-10.3h-9.1v-0.3
	C371.9,138.3,371.9,166.7,371.9,166.7z M119.4,146.4c0,5.6,3.8,7.2,8.8,8.4c5.3,1.3,6.3,1.9,6.3,3.8c0,2.2-1.6,3.1-5,3.1
	c-2.8,0-5.3-0.9-7.2-3.1l-4.1,3.8c2.2,3.1,6.3,5.3,10.9,5.3c7.8,0,11.3-3.8,11.3-9.1c0-6.3-5-7.8-9.4-8.8c-4.4-0.9-5.6-1.6-5.6-3.4
	c0-1.3,0.9-2.5,4.1-2.5c2.5,0,4.7,0.9,6.6,2.8l4.1-4.1c-2.8-2.8-5.9-4.4-10.3-4.4c-0.3,0-0.6,0-0.9,0
	C123.5,138.3,119.4,141.4,119.4,146.4 M150.7,152.7c0-5,1.9-9.1,6.6-9.1c4.7,0,6.6,4.1,6.6,9.1c0,5-1.9,9.1-6.6,9.1
	C152.6,161.7,150.7,157.7,150.7,152.7 M144.8,152.7c0,8.8,4.7,14.7,12.2,14.7c7.8,0,12.5-5.9,12.5-14.7S164.8,138,157,138
	C149.5,138,144.8,143.9,144.8,152.7 M192.6,138L192.6,138v16.3c0,4.7-2.2,7.5-5.9,7.5c-3.8,0-5.9-2.8-5.9-7.5v-16h-5.6v16
	c0,8.1,4.7,12.8,11.6,12.8c7.2,0,11.6-4.7,11.6-13.1v-16H192.6z M263.7,152.7c0,9.1,5,14.7,12.5,14.7c5.3,0,8.4-2.5,10.6-6.6
	l-4.7-2.8c-1.6,2.5-3.1,3.8-5.6,3.8c-4.4,0-6.9-3.8-6.9-9.1c0-5.3,2.5-9.1,6.6-9.1c2.5,0,4.1,1.3,5.3,3.1l5.3-2.5
	c-1.9-3.8-5-6.3-10.3-6.3C269,138,263.7,143.9,263.7,152.7 M317.5,152.7c0-5,1.9-9.1,6.6-9.1c4.7,0,6.6,4.1,6.6,9.1
	c0,5-1.9,9.1-6.6,9.1C319.4,161.7,317.5,157.7,317.5,152.7 M311.5,152.7c0,8.8,4.7,14.7,12.2,14.7c7.8,0,12.2-5.9,12.2-14.7
	s-4.7-14.7-12.2-14.7C316.2,138,311.5,143.9,311.5,152.7 M359.1,138L359.1,138v16.3c0,4.7-2.2,7.5-5.9,7.5c-3.8,0-5.9-2.8-5.9-7.5
	v-16h-5.6v16c0,8.1,4.7,12.8,11.6,12.8c7.2,0,11.6-4.7,11.6-13.1v-16H359.1z M46.2,138.6l-0.6,21.6l0.6,10.3c0,0.6,0.6,1.3,1.3,1.3
	s1.3-0.6,1.3-1.3l0.6-10.3l-0.6-21.9c0-0.6-0.6-1.3-1.3-1.3C46.5,137.3,46.2,137.6,46.2,138.6 M33.7,137.6l-0.6,22.5l0.6,10.6
	c0,0.6,0.3,0.9,0.9,0.9s0.9-0.3,0.9-0.9l0.6-10.6l-0.6-22.5c0-0.6-0.3-0.9-0.9-0.9C34,136.7,33.7,137.3,33.7,137.6 M41.9,137.6
	l-0.6,22.5l0.6,10.6c0,0.6,0.6,1.3,1.3,1.3s1.3-0.6,1.3-1.3l0.6-10.6l-0.6-22.5c0-0.6-0.6-1.3-1.3-1.3S41.9,137,41.9,137.6
	 M37.8,137l-0.6,23.2l0.6,10.6c0,0.6,0.3,0.9,0.9,0.9s0.9-0.3,0.9-0.9l0.6-10.6L39.7,137c0-0.6-0.6-0.9-0.9-0.9
	C38.4,136.1,37.8,136.4,37.8,137 M50.3,134.2l-0.6,26l0.6,10.3c0,0.6,0.6,1.3,1.3,1.3s1.3-0.6,1.3-1.3l0.6-10.3l-0.6-26
	c0-0.6-0.6-1.3-1.3-1.3S50.3,133.6,50.3,134.2 M54.7,132l-0.6,28.2l0.6,10.3c0,0.6,0.6,1.3,1.3,1.3s1.3-0.6,1.3-1.3l0.6-10.3
	L57.2,132c0-0.6-0.6-1.3-1.3-1.3h-0.3C55,130.8,54.7,131.4,54.7,132 M59.7,129.2c-0.9,0.3-1.3,0.6-1.3,1.6v39.7
	c0,0.6,0.6,1.3,1.3,1.6h34.7c6.9,0,12.5-5.6,12.5-12.5c0-6.9-5.6-12.5-12.5-12.5c-1.6,0-3.4,0.3-4.7,0.9c-0.9-11.3-10.3-20-21.9-20
	c-0.6,0-0.9,0-1.6,0C64.1,127.9,61.9,128.6,59.7,129.2"/>
</svg>
